<svg id="Layer_1" data-name="Layer 1" xmlns="http://www.w3.org/2000/svg" viewBox="0 0 1000 537.26"><defs><style>.cls-1{fill:#feda00;}</style></defs><path d="M-1,.86H1001a0,0,0,0,1,0,0V482.22a55,55,0,0,1-55,55H-1a0,0,0,0,1,0,0V.86A0,0,0,0,1-1,.86Z"/><polygon class="cls-1" points="73.39 77.67 73.39 211.58 191.46 77.67 73.39 77.67"/><polygon class="cls-1" points="254.29 219.48 212.91 172.59 73.39 330.84 73.39 450.1 265.51 232.21 254.29 219.48"/><polygon class="cls-1" points="413.14 303.3 448.18 263.56 448.43 263.27 362.89 166.26 253.1 166.26 280.42 197.22 337.73 262.22 339.32 264.04 340.97 265.91 336.25 271.26 326.89 281.89 169.42 460.46 274.58 460.46 379.43 341.52 388.8 330.89 413.14 303.3"/><polygon class="cls-1" points="642.62 281.56 822.4 77.67 750.99 77.67 717.24 77.67 612.08 77.67 511.57 77.67 506.93 77.67 484.89 102.65 462.86 77.67 401.77 77.67 357.7 77.67 296.61 77.67 241.95 139.66 347.1 139.66 379.74 102.65 432.32 162.28 484.89 221.93 537.46 162.3 544.69 154.1 649.85 154.1 590.05 221.93 537.48 281.56 590.05 341.19 627.81 384.02 552.29 384.02 447.13 384.02 379.74 460.46 484.89 460.46 590.05 460.46 686.55 460.46 695.21 460.46 747.79 400.83 695.21 341.2 642.62 281.56"/><polygon class="cls-1" points="781.49 243.34 728.92 302.97 736.14 311.16 780.06 360.97 781.5 362.6 834.07 302.97 926.61 198.02 926.61 78.76 781.49 243.34"/><path class="cls-1" d="M926.61,423.8V317.27L800.36,460.46h88C909.49,460.46,926.61,444.05,926.61,423.8Z"/></svg>